<?xml version="1.0" encoding="UTF-8"?>
<svg width="12px" height="12px" viewBox="0 0 12 12" version="1.1" xmlns="http://www.w3.org/2000/svg" xmlns:xlink="http://www.w3.org/1999/xlink">
    <!-- Generator: Sketch 45.1 (43504) - http://www.bohemiancoding.com/sketch -->
    <title>Action Close</title>
    <desc>Created with Sketch.</desc>
    <defs></defs>
    <g id="Symbols">
        <g id="Buttons-/-Icons-/-Actions-/-Close" transform="translate(-2.000000, -2.000000)">
            <path d="M8,6.8 L3.79603861,2.59603861 C3.46696777,2.26696777 2.93137085,2.26862915 2.6,2.6 C2.26631889,2.93368111 2.26685558,3.46685558 2.59603861,3.79603861 L6.8,8 L2.59603861,12.2039614 C2.26685558,12.5331444 2.26631889,13.0663189 2.6,13.4 C2.93137085,13.7313708 3.46696777,13.7330322 3.79603861,13.4039614 L8,9.2 L12.2039614,13.4039614 C12.5330322,13.7330322 13.0686292,13.7313708 13.4,13.4 C13.7336811,13.0663189 13.7331444,12.5331444 13.4039614,12.2039614 L9.2,8 L13.4039614,3.79603861 C13.7331444,3.46685558 13.7336811,2.93368111 13.4,2.6 C13.0686292,2.26862915 12.5330322,2.26696777 12.2039614,2.59603861 L8,6.8 Z" id="Action-Close"></path>
        </g>
    </g>
</svg>
