<?xml version="1.0" encoding="UTF-8"?>
<svg width="16px" height="16px" viewBox="0 0 16 16" version="1.1" xmlns="http://www.w3.org/2000/svg" xmlns:xlink="http://www.w3.org/1999/xlink">
    <!-- Generator: Sketch 46.2 (44496) - http://www.bohemiancoding.com/sketch -->
    <title>Buttons / Icons / Actions / Search</title>
    <desc>Created with Sketch.</desc>
    <defs></defs>
    <g id="Symbols" stroke="none" stroke-width="1" fill="none" fill-rule="evenodd">
        <g id="Buttons-/-Icons-/-Actions-/-Search" fill-rule="nonzero" fill="#000000">
            <path d="M9.19238816,9.19238816 C10.363961,8.02081528 10.363961,6.12132034 9.19238816,4.94974747 C8.02081528,3.77817459 6.12132034,3.77817459 4.94974747,4.94974747 C3.77817459,6.12132034 3.77817459,8.02081528 4.94974747,9.19238816 C6.12132034,10.363961 8.02081528,10.363961 9.19238816,9.19238816 Z M9.76793547,11.2826541 C7.83252584,12.5246136 5.228195,12.2992628 3.53553391,10.6066017 C1.58291245,8.65398026 1.58291245,5.48815536 3.53553391,3.53553391 C5.48815536,1.58291245 8.65398026,1.58291245 10.6066017,3.53553391 C12.3347725,5.26370472 12.5334229,7.94219768 11.2025529,9.88884445 L14.7487373,13.4350288 L13.3345238,14.8492424 L9.76793547,11.2826541 Z" id="Combined-Shape"></path>
        </g>
    </g>
</svg>
