<?xml version="1.0" encoding="UTF-8"?>
<svg width="14px" height="14px" viewBox="0 0 14 14" version="1.1" xmlns="http://www.w3.org/2000/svg" xmlns:xlink="http://www.w3.org/1999/xlink">
    <!-- Generator: Sketch 45.1 (43504) - http://www.bohemiancoding.com/sketch -->
    <title>Action Edit</title>
    <desc>Created with Sketch.</desc>
    <defs></defs>
    <g id="Symbols">
        <g id="Buttons-/-Icons-/-Actions-/-Edit" transform="translate(-1.000000, -1.000000)">
            <path d="M2.09386028,11.4026916 C2.06395874,11.37279 2.01328727,11.3847865 1.99985844,11.4248939 L1.02635745,14.345576 C0.896903479,14.7337588 1.26628596,15.1029622 1.65446881,14.9735083 L4.57515084,14.0000073 C4.61507924,13.9867575 4.62707566,13.935907 4.59735318,13.9061845 L2.09386028,11.4026916 Z M10.4954764,2.95147826 C10.4732741,2.92927592 10.4374639,2.92927592 10.4152615,2.95147826 L2.5957406,10.7709992 C2.57353826,10.7932015 2.57353826,10.8290118 2.5957406,10.8512141 L5.14865161,13.4043042 C5.17085395,13.4263275 5.20684322,13.4263275 5.22886651,13.4043042 L13.0485665,5.58460418 C13.0705898,5.56258089 13.0705898,5.52659161 13.0485665,5.50438927 L10.4954764,2.95147826 Z M13.3705004,1.26213085 C13.0209926,0.912623049 12.4541167,0.912623049 12.1044299,1.26213085 L11.0220658,2.34449493 C11.0000425,2.36669727 11.0000425,2.40268655 11.0220658,2.42470984 L13.5751559,4.9777999 C13.5973582,5.00000224 13.6331684,5.00000224 13.6553708,4.9777999 L14.7377349,3.89543582 C15.0874217,3.54574896 15.0874217,2.97905214 14.7377349,2.62936528 L13.3705004,1.26213085 Z" id="Action-Edit"></path>
        </g>
    </g>
</svg>
