<?xml version="1.0" encoding="UTF-8"?>
<svg width="12px" height="14px" viewBox="0 0 12 14" version="1.1" xmlns="http://www.w3.org/2000/svg" xmlns:xlink="http://www.w3.org/1999/xlink">
    <!-- Generator: Sketch 45.1 (43504) - http://www.bohemiancoding.com/sketch -->
    <title>Arrow Up</title>
    <desc>Created with Sketch.</desc>
    <defs></defs>
    <g id="Symbols">
        <g id="Buttons-/-Icons-/-Arrow-/-Up-Arrow" transform="translate(-2.000000, -1.000000)">
            <path d="M9,2.00651625 C9,1.45063267 8.55613518,1 8,1 L8,1 C7.44771525,1 7,1.44131439 7,2.00348755 L7,11.2705895 L4.21196136,8.67766825 C3.809532,8.30340241 3.15410653,8.30899151 2.75903027,8.67982435 L2.72426828,8.7124532 C2.32426596,9.08790982 2.32418306,9.69377306 2.73936004,10.0798944 L7.29034372,14.3123832 C7.69868099,14.6921435 8.35069281,14.6983074 8.76177927,14.3119336 L13.2679245,10.0766774 C13.6722386,9.69666877 13.6690672,9.0812469 13.2719019,8.71236727 L13.2369561,8.67991028 C12.8348385,8.30643121 12.1850424,8.30801579 11.7818203,8.68699803 L9,11.3015879 L9,2.00651625 Z" id="Arrow-Up" transform="translate(8.000000, 8.000000) scale(1, -1) translate(-8.000000, -8.000000) "></path>
        </g>
    </g>
</svg>
