<?xml version="1.0" encoding="UTF-8"?>
<svg width="14px" height="12px" viewBox="0 0 14 12" version="1.1" xmlns="http://www.w3.org/2000/svg" xmlns:xlink="http://www.w3.org/1999/xlink">
    <!-- Generator: Sketch 45.1 (43504) - http://www.bohemiancoding.com/sketch -->
    <title>Arrow Right</title>
    <desc>Created with Sketch.</desc>
    <defs></defs>
    <g id="Symbols">
        <g id="Buttons-/-Icons-/-Arrow-/-Right-Arrow" transform="translate(-1.000000, -2.000000)">
            <path d="M4.29787523,7 L13.5969898,7 C14.1506405,7 14.5994631,7.44386482 14.5994631,8 C14.5994631,8.55228475 14.1437021,9 13.5969898,9 L4.32887361,9 L6.92129747,11.7875038 C7.29590413,12.1902997 7.29509537,12.8409674 6.91963875,13.2409697 L6.8870099,13.2757317 C6.51617706,13.670808 5.899329,13.6689772 5.5195687,13.26064 L1.28707994,8.70965628 C0.900958611,8.29447931 0.907520937,7.64253487 1.28752954,7.23822073 L5.52278572,2.73207551 C5.90915951,2.32098906 6.51361676,2.32598065 6.88709583,2.72809815 L6.91955282,2.76304395 C7.28843245,3.16020934 7.28823293,3.81837757 6.90883405,4.22204298 L4.29787523,7 Z" id="Arrow-Right" transform="translate(7.799732, 7.997317) scale(-1, 1) translate(-7.799732, -7.997317) "></path>
        </g>
    </g>
</svg>
