<?xml version="1.0" encoding="UTF-8"?>
<svg width="16px" height="16px" viewBox="0 0 16 16" version="1.1" xmlns="http://www.w3.org/2000/svg" xmlns:xlink="http://www.w3.org/1999/xlink">
    <!-- Generator: Sketch 46.2 (44496) - http://www.bohemiancoding.com/sketch -->
    <title>Buttons / Icons / Date and time / Calendar</title>
    <desc>Created with Sketch.</desc>
    <defs></defs>
    <g id="Symbols" stroke="none" stroke-width="1" fill="none" fill-rule="evenodd">
        <g id="Buttons-/-Icons-/-Date-and-time-/-Calendar" fill="#000000">
            <g id="My-Work-Icon-v2" transform="translate(1.000000, 2.000000)">
                <path d="M1,0 L13,0 C13.5522847,-1.11022302e-15 14,0.44771525 14,1 L14,12 C14,12.5522847 13.5522847,13 13,13 L1,13 C0.44771525,13 0,12.5522847 0,12 L0,1 C-1.11022302e-16,0.44771525 0.44771525,0 1,0 Z M1,4 L13,4 L13,12 L1,12 L1,4 Z M2,0 L5,0 L5,2 L2,2 L2,0 Z M9,0 L12,0 L12,2 L9,2 L9,0 Z" id="Combined-Shape"></path>
                <rect id="Date-6" x="10" y="9" width="2" height="2"></rect>
                <rect id="Date-5" x="6" y="9" width="2" height="2"></rect>
                <polygon id="Date-4" points="2 9 4 9 4 11 2 11"></polygon>
                <rect id="Date-3" x="10" y="5" width="2" height="2"></rect>
                <rect id="Date-2" x="6" y="5" width="2" height="2"></rect>
                <polygon id="Date-1" points="2 5 4 5 4 7 2 7"></polygon>
            </g>
            <rect id="Rectangle-24" x="4" y="1" width="1" height="2"></rect>
            <rect id="Rectangle-24-Copy" x="11" y="1" width="1.0044848" height="2"></rect>
        </g>
    </g>
</svg>
