<?xml version="1.0" encoding="UTF-8"?>
<svg width="16px" height="16px" viewBox="0 0 16 16" version="1.1" xmlns="http://www.w3.org/2000/svg" xmlns:xlink="http://www.w3.org/1999/xlink">
    <!-- Generator: Sketch 46 (44423) - http://www.bohemiancoding.com/sketch -->
    <title>Buttons / Icons / Information / Questionmark</title>
    <desc>Created with Sketch.</desc>
    <defs></defs>
    <g id="Symbols" stroke="none" stroke-width="1" fill="none" fill-rule="evenodd">
        <g id="Buttons-/-Icons-/-Information-/-Questionmark" fill="#555555">
            <path d="M8,11.5 C8.41421356,11.5 8.69999981,11.2142138 8.69999981,10.8000002 C8.69999981,10.3857866 8.41421356,10.1000004 8,10.1000004 C7.58578644,10.1000004 7.30000019,10.3857866 7.30000019,10.8000002 C7.30000019,11.2142138 7.58578644,11.5 8,11.5 Z" id="Oval-2"></path>
            <path d="M7.81982609,13.6402609 C11.0340063,13.6402609 13.6396522,11.0342937 13.6396522,7.81982609 C13.6396522,4.60550214 11.03415,2 7.81982609,2 C4.60550214,2 2,4.60550214 2,7.81982609 C2,11.0342937 4.60564584,13.6402609 7.81982609,13.6402609 Z M7.81982609,14.6402609 C4.05321739,14.6402609 1,11.5864348 1,7.81982609 C1,4.05321739 4.05321739,1 7.81982609,1 C11.5864348,1 14.6396522,4.05321739 14.6396522,7.81982609 C14.6396522,11.5864348 11.5864348,14.6402609 7.81982609,14.6402609 Z" id="Oval" fill-rule="nonzero"></path>
            <path d="M6.6500001,6.11093006 C6.6500001,5.50704352 7.20080805,5 7.89997431,5 C8.60579269,5 9.16689423,5.5114406 9.14959533,6.09614363 C9.13399442,6.61526195 8.96170789,6.91047632 8.57805257,7.05936569 C8.35328394,7.14643004 8.20362852,7.21231941 8.07799377,7.28357668 C7.57651035,7.56800704 7.49893429,7.8291936 7.4999389,8.62521277 C7.49998491,8.66205429 7.49998491,8.66205429 7.5000001,8.7 C7.5000001,8.97614237 7.72385772,9.2 8.0000001,9.2 C8.27614247,9.2 8.5000001,8.97614237 8.5000001,8.7 C8.49998448,8.66103952 8.49998448,8.66103952 8.49993811,8.62395072 C8.49935403,8.16114671 8.4875341,8.20094257 8.57134298,8.15340802 C8.64412059,8.11213016 8.75667026,8.06257748 8.93954889,7.99173918 C9.73388151,7.68347382 10.1223476,7.01783407 10.149151,6.12594957 C10.1840013,4.94801005 9.14393941,4 7.89997431,4 C6.66616252,4 5.6500001,4.93542326 5.6500001,6.11093006 C5.6500001,6.38707243 5.87385772,6.61093006 6.1500001,6.61093006 C6.42614247,6.61093006 6.6500001,6.38707243 6.6500001,6.11093006 Z" id="Question-Mark" fill-rule="nonzero"></path>
        </g>
    </g>
</svg>