<?xml version="1.0" encoding="UTF-8"?>
<svg width="16px" height="16px" viewBox="0 0 16 16" version="1.1" xmlns="http://www.w3.org/2000/svg" xmlns:xlink="http://www.w3.org/1999/xlink">
    <!-- Generator: Sketch 46 (44423) - http://www.bohemiancoding.com/sketch -->
    <title>Buttons / Icons / Information / Light bulb</title>
    <desc>Created with Sketch.</desc>
    <defs></defs>
    <g id="Symbols" stroke="none" stroke-width="1" fill="none" fill-rule="evenodd">
        <g id="Buttons-/-Icons-/-Information-/-Light-bulb" fill-rule="nonzero" fill="#000000">
            <g id="Page-1" transform="translate(3.500000, 1.550000)">
                <path d="M3.21421737,9.1658442 L3.21322167,9.15205287 C3.2136817,9.1566065 3.21401492,9.16120418 3.21421737,9.1658442 Z M6.27907368,9.69871835 C6.54821141,9.76052039 6.7162902,10.0288001 6.65448816,10.2979378 C6.59268612,10.5670755 6.32440643,10.7351543 6.05526869,10.6733523 L2.82300676,9.93112868 C2.4818656,9.85280403 2.23047414,9.56023661 2.21600303,9.22381522 L2.17311856,8.63264275 C1.93298776,8.35628619 1.64190372,8.04491715 1.30361694,7.69726186 C0.342484214,6.72667102 -0.163873864,5.82008661 -0.276188385,4.73333011 C-0.524534505,2.33146001 1.29850409,-0.00152145665 3.74454641,-0.390039474 C6.75447866,-0.868274617 9.4464778,1.33443912 9.4464778,4.22669173 C9.4464778,5.54102273 8.87957611,6.76807303 7.92103418,7.62884497 L6.96701616,8.58226875 C6.96124011,8.58804304 6.95245897,8.67139036 6.94067274,8.8323107 C6.91191681,9.31835953 6.4455608,9.65009892 5.97530038,9.54205654 L3.7667625,9.0345651 C3.49763395,8.97272308 3.32959501,8.70441843 3.39143703,8.43528988 C3.45327904,8.16616133 3.7215837,7.99812239 3.99071225,8.05996441 L5.95846267,8.51212623 C5.98120976,8.27195064 6.08790039,8.04711856 6.26007339,7.874998 L7.23331816,6.90334587 C8.00360327,6.21087485 8.4464778,5.2522795 8.4464778,4.22669173 C8.4464778,1.95941887 6.3137179,0.214299616 3.90143953,0.597576112 C1.97640481,0.9033397 0.525161026,2.7605274 0.718511102,4.63050536 C0.804533698,5.46286091 1.20068136,6.17212439 2.01723222,6.99673763 C2.36760281,7.35678313 2.66716231,7.67721826 2.90445974,7.94006317 C3.06018834,8.11251895 3.15388608,8.33010297 3.17051125,8.56047772 L3.20167016,8.99205484 L6.27907368,9.69871835 Z" id="Stroke-1"></path>
                <path d="M2.78165299,11.2589054 L5.9959387,11.9921545 C6.26516471,12.0535708 6.5332033,11.8851078 6.59461966,11.6158818 C6.65603602,11.3466558 6.48757302,11.0786172 6.21834701,11.0172009 L3.0040613,10.2839518 C2.73483529,10.2225354 2.4667967,10.3909984 2.40538034,10.6602244 C2.34396398,10.9294504 2.51242698,11.197489 2.78165299,11.2589054 Z" id="Stroke-3"></path>
                <path d="M2.78165299,12.5589054 L5.9959387,13.2921545 C6.26516471,13.3535708 6.5332033,13.1851078 6.59461966,12.9158818 C6.65603602,12.6466558 6.48757302,12.3786172 6.21834701,12.3172009 L3.0040613,11.5839518 C2.73483529,11.5225354 2.4667967,11.6909984 2.40538034,11.9602244 C2.34396398,12.2294504 2.51242698,12.497489 2.78165299,12.5589054 Z" id="Stroke-5"></path>
            </g>
        </g>
    </g>
</svg>
