<?xml version="1.0" encoding="UTF-8"?>
<svg width="14px" height="14px" viewBox="0 0 14 14" version="1.1" xmlns="http://www.w3.org/2000/svg" xmlns:xlink="http://www.w3.org/1999/xlink">
    <!-- Generator: Sketch 45.1 (43504) - http://www.bohemiancoding.com/sketch -->
    <title>Option Gear Full</title>
    <desc>Created with Sketch.</desc>
    <defs></defs>
    <g id="Symbols">
        <g id="Buttons-/-Icons-/-Options-/-Cogwheel" transform="translate(-1.000000, -1.000000)">
            <path d="M8.00105677,10.5786548 C6.57670351,10.5754865 5.42302699,9.42099655 5.42302699,7.99731089 C5.42302699,6.57435697 6.57556273,5.42030494 7.9989438,5.4160002 C9.42329673,5.41916879 10.576973,6.57365861 10.576973,7.99731644 C10.576973,9.420298 9.42443732,10.5743501 8.00105629,10.5786548 L8.00105677,10.5786548 Z M7.20525819,1.04712871 C7.04280831,1.06628515 6.9069154,1.17889505 6.85763098,1.33472475 C6.74024748,1.7058495 6.53137144,2.43978218 6.4444022,3.20623366 C6.19548258,3.29719208 5.95608129,3.39649505 5.72686433,3.51304158 C5.11477736,3.02603564 4.44766167,2.65460594 4.10194922,2.47510099 C3.95620497,2.39941782 3.78004647,2.41674455 3.65109112,2.51837624 C3.4437136,2.68185743 3.24366214,2.85906139 3.05226876,3.05026535 C2.86090313,3.24144158 2.68352361,3.44129505 2.51988047,3.64846733 C2.41812035,3.77729505 2.4008042,3.95327921 2.47656235,4.09887921 C2.65627288,4.4442495 3.0280428,5.11073267 3.50900991,5.71409109 C3.40011798,5.95186931 3.30104963,6.19061782 3.2204352,6.43771089 C2.44143055,6.52589703 1.70693728,6.73445545 1.33536161,6.8517505 C1.17921103,6.90101386 1.06635082,7.03688317 1.04714765,7.19933861 C1.01609514,7.46192871 1,7.72906535 1,8 C1,8.27093465 1.01609514,8.53809901 1.04714765,8.80068911 C1.06635082,8.96311683 1.17921103,9.09898614 1.33536161,9.14827723 C1.70693728,9.26554455 2.44143055,9.47413069 3.20841934,9.56098614 C3.3029089,9.8088 3.40189399,10.0468277 3.51797323,10.2747089 C3.02812605,10.8891842 2.65638388,11.555501 2.47667335,11.9009267 C2.40083195,12.0466376 2.41817585,12.2227881 2.52001922,12.351699 C2.68360686,12.5588158 2.86095863,12.7586139 3.05226876,12.9497624 C3.24360664,13.1408832 3.44363035,13.3180594 3.65092462,13.4815129 C3.77996322,13.5832277 3.95626047,13.6005545 4.10211572,13.5248158 C4.44788367,13.3452832 5.11488836,12.9739089 5.71873351,12.4934733 C5.95877306,12.5992079 6.19659259,12.6977901 6.44268169,12.778103 C6.53137144,13.5600792 6.74016423,14.293901 6.85757548,14.6650812 C6.90688765,14.8210495 7.04289156,14.9337426 7.2054802,14.952899 C7.46384857,14.9833918 7.7266141,14.9994473 7.99306522,14.999986 C8.2733859,14.9994529 8.53615143,14.9833974 8.7945198,14.9529046 C8.95710844,14.9337481 9.09311235,14.821055 9.14242452,14.6650867 C9.25983577,14.2939065 9.46862856,13.5600848 9.5555978,12.7937719 C9.80340741,12.6977956 10.0412269,12.5992135 10.2690009,12.4836927 C10.8851116,12.9739145 11.5521163,13.3452887 11.8978843,13.5248214 C12.0437395,13.60056 12.2200368,13.5832333 12.3490754,13.4815184 C12.5563697,13.318065 12.7563934,13.1408887 12.9477312,12.9497679 C13.1390414,12.7586194 13.3163931,12.5588214 13.4799808,12.3517046 C13.5818241,12.2227937 13.599168,12.0466432 13.5233267,11.9009323 C13.3436161,11.5555065 12.9718739,10.8891897 12.4909901,10.2859422 C12.598106,10.0468333 12.6970911,9.80880554 12.777761,9.56251644 C13.5585695,9.47413624 14.2930627,9.2655501 14.6646384,9.14828277 C14.820789,9.09899168 14.9336492,8.96312238 14.9528523,8.80069465 C14.9839049,8.53810455 15,8.2709402 15,8.00000554 C15,7.72907089 14.9839049,7.46193426 14.9528523,7.19934416 C14.9336492,7.03688871 14.820789,6.90101941 14.6646384,6.85175604 C14.2930627,6.73446099 13.5585695,6.52590257 12.7915807,6.43901941 C12.6989504,6.19062337 12.599882,5.95187485 12.483664,5.72324515 C12.9719572,5.11073822 13.3437271,4.44425505 13.5234377,4.09888475 C13.5991958,3.95328475 13.5818797,3.77730059 13.4801195,3.64847287 C13.3164764,3.44130059 13.1390969,3.24144713 12.9477312,3.05027089 C12.7563379,2.85906693 12.5562864,2.68186297 12.3489089,2.51838178 C12.2199535,2.4167501 12.043795,2.39942337 11.8980508,2.47510653 C11.5523383,2.65461149 10.8852226,3.02604119 10.2812665,3.50653228 C10.0439187,3.39650059 9.80451742,3.29719762 9.55670781,3.21635802 C9.46862856,2.43978772 9.25975252,1.70585505 9.14236902,1.3347303 C9.0930846,1.17890059 8.95719169,1.06629069 8.79474181,1.04713426 C8.53631795,1.01664132 8.27344327,1.00055904 8.00693478,1.00001958 C7.72655673,1.0005535 7.46368205,1.01663577 7.20525819,1.04712871 Z" id="Option-Gear-Full"></path>
        </g>
    </g>
</svg>
